REM DIRINDEX 1\2\6,1\2\7,1\2\8,1\2\9,1\3\10,1\3\11,1\4\12,1\4\13,1\4\14,1\5\15,1\5\16,1\5\17
REM DIRNAME cjc029,folder01,folder02,folder03,folder04,folder05,folder06,folder07,folder08,folder09,folder10,folder11,folder12,folder13,folder14,folder15,folder16
TITLE ""
FILE "1400_3_sec10_0916_0932.mp3" MP3
  TRACK 01 AUDIO
    TITLE "0:"
    INDEX 01 00:00:00
  TRACK 02 AUDIO
    TITLE "17:cjc029_6268"
    INDEX 01 00:00:15
  TRACK 03 AUDIO
    TITLE "0:"
    INDEX 01 00:05:30
  TRACK 04 AUDIO
    TITLE "16:cjc029_6269"
    INDEX 01 00:05:34
  TRACK 05 AUDIO
    TITLE "0:"
    INDEX 01 00:06:45
  TRACK 06 AUDIO
    TITLE "17:cjc029_6270"
    INDEX 01 00:07:29
  TRACK 07 AUDIO
    TITLE "0:"
    INDEX 01 00:08:60
  TRACK 08 AUDIO
    TITLE "16:cjc029_6271"
    INDEX 01 00:08:68
  TRACK 09 AUDIO
    TITLE "0:"
    INDEX 01 00:10:02
  TRACK 10 AUDIO
    TITLE "17:cjc029_6272"
    INDEX 01 00:10:59
  TRACK 11 AUDIO
    TITLE "0:"
    INDEX 01 00:12:26
  TRACK 12 AUDIO
    TITLE "16:cjc029_6273"
    INDEX 01 00:12:34
  TRACK 13 AUDIO
    TITLE "0:"
    INDEX 01 00:14:06
  TRACK 14 AUDIO
    TITLE "17:cjc029_6274"
    INDEX 01 00:14:66
  TRACK 15 AUDIO
    TITLE "0:"
    INDEX 01 00:15:66
  TRACK 16 AUDIO
    TITLE "16:cjc029_6275"
    INDEX 01 00:15:72
  TRACK 17 AUDIO
    TITLE "0:"
    INDEX 01 00:17:02
  TRACK 18 AUDIO
    TITLE "17:cjc029_6276"
    INDEX 01 00:17:59
  TRACK 19 AUDIO
    TITLE "0:"
    INDEX 01 00:18:68
  TRACK 20 AUDIO
    TITLE "16:cjc029_6277"
    INDEX 01 00:18:70
  TRACK 21 AUDIO
    TITLE "0:"
    INDEX 01 00:19:73
  TRACK 22 AUDIO
    TITLE "17:cjc029_6278"
    INDEX 01 00:20:57
  TRACK 23 AUDIO
    TITLE "0:"
    INDEX 01 00:21:66
  TRACK 24 AUDIO
    TITLE "16:cjc029_6279"
    INDEX 01 00:21:72
  TRACK 25 AUDIO
    TITLE "0:"
    INDEX 01 00:22:70
  TRACK 26 AUDIO
    TITLE "17:cjc029_6280"
    INDEX 01 00:23:57
  TRACK 27 AUDIO
    TITLE "0:"
    INDEX 01 00:25:13
  TRACK 28 AUDIO
    TITLE "16:cjc029_6281"
    INDEX 01 00:25:19
  TRACK 29 AUDIO
    TITLE "0:"
    INDEX 01 00:26:28
  TRACK 30 AUDIO
    TITLE "17:cjc029_6282"
    INDEX 01 00:27:12
  TRACK 31 AUDIO
    TITLE "0:"
    INDEX 01 00:28:19
  TRACK 32 AUDIO
    TITLE "16:cjc029_6283"
    INDEX 01 00:28:23
  TRACK 33 AUDIO
    TITLE "0:"
    INDEX 01 00:29:33
  TRACK 34 AUDIO
    TITLE "17:cjc029_6284"
    INDEX 01 00:30:18
  TRACK 35 AUDIO
    TITLE "0:"
    INDEX 01 00:31:61
  TRACK 36 AUDIO
    TITLE "16:cjc029_6285"
    INDEX 01 00:31:65
  TRACK 37 AUDIO
    TITLE "0:"
    INDEX 01 00:33:22
  TRACK 38 AUDIO
    TITLE "17:cjc029_6286"
    INDEX 01 00:34:04
  TRACK 39 AUDIO
    TITLE "0:"
    INDEX 01 00:36:21
  TRACK 40 AUDIO
    TITLE "16:cjc029_6287"
    INDEX 01 00:36:25
  TRACK 41 AUDIO
    TITLE "0:"
    INDEX 01 00:37:42
  TRACK 42 AUDIO
    TITLE "17:cjc029_6288"
    INDEX 01 00:38:28
  TRACK 43 AUDIO
    TITLE "0:"
    INDEX 01 00:40:54
  TRACK 44 AUDIO
    TITLE "16:cjc029_6289"
    INDEX 01 00:40:58
  TRACK 45 AUDIO
    TITLE "0:"
    INDEX 01 00:42:04
  TRACK 46 AUDIO
    TITLE "17:cjc029_6290"
    INDEX 01 00:42:61
  TRACK 47 AUDIO
    TITLE "0:"
    INDEX 01 00:44:28
  TRACK 48 AUDIO
    TITLE "16:cjc029_6291"
    INDEX 01 00:44:32
  TRACK 49 AUDIO
    TITLE "0:"
    INDEX 01 00:45:53
  TRACK 50 AUDIO
    TITLE "17:cjc029_6292"
    INDEX 01 00:46:39
  TRACK 51 AUDIO
    TITLE "0:"
    INDEX 01 00:48:02
  TRACK 52 AUDIO
    TITLE "16:cjc029_6293"
    INDEX 01 00:48:08
  TRACK 53 AUDIO
    TITLE "0:"
    INDEX 01 00:49:12
  TRACK 54 AUDIO
    TITLE "17:cjc029_6294"
    INDEX 01 00:49:70
  TRACK 55 AUDIO
    TITLE "0:"
    INDEX 01 00:51:32
  TRACK 56 AUDIO
    TITLE "16:cjc029_6295"
    INDEX 01 00:51:36
  TRACK 57 AUDIO
    TITLE "0:"
    INDEX 01 00:53:00
  TRACK 58 AUDIO
    TITLE "17:cjc029_6296"
    INDEX 01 00:53:55
  TRACK 59 AUDIO
    TITLE "0:"
    INDEX 01 00:54:56
  TRACK 60 AUDIO
    TITLE "16:cjc029_6297"
    INDEX 01 00:54:60
  TRACK 61 AUDIO
    TITLE "0:"
    INDEX 01 00:56:06
  TRACK 62 AUDIO
    TITLE "17:cjc029_6298"
    INDEX 01 00:56:65
  TRACK 63 AUDIO
    TITLE "0:"
    INDEX 01 00:57:74
  TRACK 64 AUDIO
    TITLE "16:cjc029_6299"
    INDEX 01 00:58:03
  TRACK 65 AUDIO
    TITLE "0:"
    INDEX 01 00:59:20
  TRACK 66 AUDIO
    TITLE "17:cjc029_6300"
    INDEX 01 01:00:04
  TRACK 67 AUDIO
    TITLE "0:"
    INDEX 01 01:03:69
  TRACK 68 AUDIO
    TITLE "16:cjc029_6301"
    INDEX 01 01:04:01
  TRACK 69 AUDIO
    TITLE "0:"
    INDEX 01 01:05:11
